<svg width="1000" height="720" viewBox="0 0 1000 720" fill="none" xmlns="http://www.w3.org/2000/svg">
  <rect width="1000" height="720" rx="36" fill="#081426"/>
  <rect x="70" y="70" width="860" height="580" rx="28" fill="#0F1D38" stroke="#2B426D"/>
  <rect x="110" y="110" width="220" height="500" rx="22" fill="#122545"/>
  <rect x="150" y="150" width="140" height="18" rx="9" fill="#3D5B8C"/>
  <rect x="150" y="206" width="140" height="52" rx="16" fill="url(#a)"/>
  <rect x="150" y="278" width="140" height="52" rx="16" fill="url(#b)"/>
  <rect x="150" y="350" width="140" height="52" rx="16" fill="url(#c)"/>
  <rect x="150" y="422" width="140" height="52" rx="16" fill="url(#d)"/>
  <rect x="370" y="110" width="520" height="88" rx="22" fill="url(#hero)"/>
  <rect x="400" y="140" width="190" height="20" rx="10" fill="#EDFAFF"/>
  <rect x="400" y="228" width="150" height="150" rx="24" fill="url(#k1)"/>
  <rect x="570" y="228" width="150" height="150" rx="24" fill="url(#k2)"/>
  <rect x="740" y="228" width="150" height="150" rx="24" fill="url(#k3)"/>
  <rect x="400" y="404" width="490" height="176" rx="24" fill="#112244" stroke="#304C79"/>
  <rect x="430" y="438" width="150" height="16" rx="8" fill="#E0F5FF"/>
  <rect x="430" y="476" width="420" height="14" rx="7" fill="#7FA1D4"/>
  <rect x="430" y="508" width="380" height="14" rx="7" fill="#6C8AC1"/>
  <rect x="430" y="540" width="280" height="14" rx="7" fill="#5D7BAE"/>
  <defs>
    <linearGradient id="a" x1="150" y1="206" x2="290" y2="258"><stop stop-color="#22C55E"/><stop offset="1" stop-color="#38BDF8"/></linearGradient>
    <linearGradient id="b" x1="150" y1="278" x2="290" y2="330"><stop stop-color="#8B5CF6"/><stop offset="1" stop-color="#38BDF8"/></linearGradient>
    <linearGradient id="c" x1="150" y1="350" x2="290" y2="402"><stop stop-color="#EC4899"/><stop offset="1" stop-color="#8B5CF6"/></linearGradient>
    <linearGradient id="d" x1="150" y1="422" x2="290" y2="474"><stop stop-color="#F59E0B"/><stop offset="1" stop-color="#22C55E"/></linearGradient>
    <linearGradient id="hero" x1="370" y1="110" x2="890" y2="198"><stop stop-color="#22C55E"/><stop offset="0.5" stop-color="#38BDF8"/><stop offset="1" stop-color="#8B5CF6"/></linearGradient>
    <linearGradient id="k1" x1="400" y1="228" x2="550" y2="378"><stop stop-color="#102A4D"/><stop offset="1" stop-color="#173A69"/></linearGradient>
    <linearGradient id="k2" x1="570" y1="228" x2="720" y2="378"><stop stop-color="#1B244D"/><stop offset="1" stop-color="#3B2A77"/></linearGradient>
    <linearGradient id="k3" x1="740" y1="228" x2="890" y2="378"><stop stop-color="#4E1F4C"/><stop offset="1" stop-color="#A13E72"/></linearGradient>
  </defs>
</svg>
