<svg xmlns="http://www.w3.org/2000/svg" width="512" height="512" viewBox="0 0 512 512" fill="none">
  <rect width="512" height="512" rx="120" fill="#0f172a"/>
  <rect x="88" y="88" width="336" height="336" rx="84" fill="#111827" stroke="#22c55e" stroke-width="18"/>
  <path d="M166 188C166 170.327 180.327 156 198 156H314C331.673 156 346 170.327 346 188V210C346 227.673 331.673 242 314 242H198C180.327 242 166 227.673 166 210V188Z" fill="#1e293b"/>
  <path d="M166 302C166 284.327 180.327 270 198 270H276C293.673 270 308 284.327 308 302V324C308 341.673 293.673 356 276 356H198C180.327 356 166 341.673 166 324V302Z" fill="#1e293b"/>
  <path d="M326 270H356C373.673 270 388 284.327 388 302V324C388 341.673 373.673 356 356 356H326V270Z" fill="#22c55e"/>
  <path d="M188 200H324" stroke="#4ade80" stroke-width="16" stroke-linecap="round"/>
  <path d="M188 314H254" stroke="#4ade80" stroke-width="16" stroke-linecap="round"/>
  <circle cx="356" cy="313" r="10" fill="#0f172a"/>
  <text x="256" y="430" text-anchor="middle" fill="#E5E7EB" font-size="42" font-family="Arial, Helvetica, sans-serif" font-weight="700">Qualitet</text>
</svg>