
<svg width="512" height="512" viewBox="0 0 512 512" xmlns="http://www.w3.org/2000/svg" fill="none">
  <defs>
    <linearGradient id="g1" x1="64" y1="64" x2="430" y2="430" gradientUnits="userSpaceOnUse">
      <stop stop-color="#22c55e"/>
      <stop offset="1" stop-color="#38bdf8"/>
    </linearGradient>
    <linearGradient id="g2" x1="120" y1="90" x2="400" y2="400" gradientUnits="userSpaceOnUse">
      <stop stop-color="#ffffff" stop-opacity=".95"/>
      <stop offset="1" stop-color="#c8f6ff" stop-opacity=".8"/>
    </linearGradient>
  </defs>
  <rect x="26" y="26" width="460" height="460" rx="120" fill="#08111f"/>
  <rect x="26" y="26" width="460" height="460" rx="120" stroke="url(#g1)" stroke-width="18"/>
  <path d="M148 318c24-92 83-138 176-138 18 0 34 2 49 6-33 8-58 26-73 52 41-13 79-10 112 10-28 1-51 12-68 31-16 18-25 40-27 64-18-22-45-38-81-48-37-11-67-4-88 23z" fill="url(#g1)"/>
  <path d="M151 302c40-39 77-59 111-59 32 0 56 13 70 40 18 33 23 71 16 114-21-33-50-49-88-49-39 0-75-15-109-46z" fill="url(#g2)"/>
  <circle cx="352" cy="160" r="24" fill="#22c55e"/>
</svg>
