<svg xmlns="http://www.w3.org/2000/svg" width="256" height="256" viewBox="0 0 256 256" fill="none">
<rect width="256" height="256" rx="48" fill="#0F172A"/>
<path d="M52 68C52 59.1634 59.1634 52 68 52H126C173.496 52 212 90.5035 212 138C212 185.496 173.496 224 126 224H68C59.1634 224 52 216.837 52 208V68Z" fill="#111827"/>
<path d="M88 94H126C150.301 94 170 113.699 170 138C170 162.301 150.301 182 126 182H88V94Z" fill="#22C55E"/>
<path d="M104 112H126C140.359 112 152 123.641 152 138C152 152.359 140.359 164 126 164H104V112Z" fill="#38BDF8"/>
<path d="M82 78H104V178H82V78Z" fill="#F8FAFC"/>
</svg>