<svg xmlns="http://www.w3.org/2000/svg" viewBox="0 0 512 512">
  <defs>
    <linearGradient id="a" x1="0" x2="1" y1="0" y2="1">
      <stop offset="0" stop-color="#1dd1a1"/>
      <stop offset="1" stop-color="#38bdf8"/>
    </linearGradient>
    <linearGradient id="b" x1="0" x2="1" y1="1" y2="0">
      <stop offset="0" stop-color="#dff7ff" stop-opacity=".85"/>
      <stop offset="1" stop-color="#6ee7ff" stop-opacity=".35"/>
    </linearGradient>
  </defs>
  <rect x="24" y="24" width="464" height="464" rx="120" fill="#031126"/>
  <rect x="24" y="24" width="464" height="464" rx="120" fill="none" stroke="url(#a)" stroke-width="18"/>
  <path d="M164 367c45-82 106-142 202-158-54 18-97 55-123 109 31-21 72-34 127-29-43 16-79 43-103 83-30 1-60-2-103-5z" fill="url(#a)"/>
  <path d="M150 358c39-36 89-55 143-44 26 23 40 63 33 127-43-49-97-78-176-83z" fill="url(#b)"/>
  <circle cx="366" cy="160" r="24" fill="#22c55e"/>
</svg>