<svg xmlns="http://www.w3.org/2000/svg" viewBox="0 0 512 512">
<defs>
  <linearGradient id="g" x1="0" x2="1" y1="0" y2="1">
    <stop offset="0%" stop-color="#22c55e"/>
    <stop offset="100%" stop-color="#38bdf8"/>
  </linearGradient>
</defs>
<rect width="512" height="512" rx="112" fill="#07111f"/>
<path d="M110 152c0-23 19-42 42-42h208c23 0 42 19 42 42v208c0 23-19 42-42 42H152c-23 0-42-19-42-42V152z" fill="#0f172a" stroke="url(#g)" stroke-width="18"/>
<path d="M175 319V193h56c26 0 45 15 45 39 0 16-8 28-22 35l34 52h-45l-27-42h-7v42h-34zm34-68h18c10 0 16-5 16-14s-6-14-16-14h-18v28z" fill="#e5eefb"/>
<path d="M295 319V193h37l39 67 39-67h37v126h-34v-68l-26 44h-31l-26-44v68h-35z" fill="url(#g)"/>
</svg>