<svg xmlns="http://www.w3.org/2000/svg" width="512" height="512" viewBox="0 0 512 512" fill="none">
  <rect width="512" height="512" rx="112" fill="#0f172a"/>
  <rect x="72" y="72" width="368" height="368" rx="88" fill="#111827" stroke="#22c55e" stroke-width="10"/>
  <path d="M168 196C168 168.386 190.386 146 218 146H294C321.614 146 344 168.386 344 196V224H312V202C312 188.745 301.255 178 288 178H224C210.745 178 200 188.745 200 202V310C200 323.255 210.745 334 224 334H288C301.255 334 312 323.255 312 310V286H344V316C344 343.614 321.614 366 294 366H218C190.386 366 168 343.614 168 316V196Z" fill="#E5E7EB"/>
  <path d="M257 228H374" stroke="#38BDF8" stroke-width="28" stroke-linecap="round"/>
  <path d="M333 188L374 228L333 268" stroke="#22C55E" stroke-width="28" stroke-linecap="round" stroke-linejoin="round"/>
  <text x="256" y="422" text-anchor="middle" fill="#F8FAFC" font-size="46" font-family="Arial, Helvetica, sans-serif" font-weight="700">QM</text>
</svg>