<svg xmlns="http://www.w3.org/2000/svg" viewBox="0 0 640 160">
<defs><linearGradient id="g" x1="0" x2="1"><stop offset="0" stop-color="#22c55e"/><stop offset="1" stop-color="#38bdf8"/></linearGradient></defs>
<rect width="640" height="160" rx="30" fill="#08111f"/>
<g transform="translate(24 24)">
<rect width="112" height="112" rx="28" fill="url(#g)"/>
<path d="M33 38h46c13 0 22 8 22 19 0 7-4 12-11 16 10 3 16 10 16 20 0 15-12 24-31 24H33V38zm23 19v18h19c8 0 13-3 13-9s-5-9-13-9H56zm0 35v20h22c9 0 14-3 14-10s-5-10-14-10H56z" fill="#04111d"/>
</g>
<text x="160" y="72" font-size="38" font-family="Arial, sans-serif" fill="#eef4ff" font-weight="700">U Szefa Qualitet</text>
<text x="160" y="108" font-size="18" font-family="Arial, sans-serif" fill="#9fb0cf">Super App do zarabiania, sklepów, ogłoszeń i własnych aplikacji</text>
</svg>