<svg width="512" height="512" viewBox="0 0 512 512" fill="none" xmlns="http://www.w3.org/2000/svg">
<rect width="512" height="512" rx="120" fill="#0B1020"/>
<rect x="56" y="56" width="400" height="400" rx="88" fill="url(#g1)" opacity="0.18"/>
<path d="M134 320C134 244.889 194.889 184 270 184H347C362.464 184 375 196.536 375 212V289C375 364.111 314.111 425 239 425H162C146.536 425 134 412.464 134 397V320Z" fill="url(#g2)"/>
<path d="M137 197C137 151.16 174.16 114 220 114H290C336.944 114 375 152.056 375 199V225C375 240.464 362.464 253 347 253H277C230.056 253 192 214.944 192 168V142" stroke="#EAF2FF" stroke-width="30" stroke-linecap="round"/>
<path d="M179 332L224 377L335 266" stroke="#EAF2FF" stroke-width="28" stroke-linecap="round" stroke-linejoin="round"/>
<defs>
<linearGradient id="g1" x1="56" y1="56" x2="456" y2="456" gradientUnits="userSpaceOnUse">
<stop stop-color="#58A6FF"/>
<stop offset="1" stop-color="#3DDC97"/>
</linearGradient>
<linearGradient id="g2" x1="134" y1="184" x2="375" y2="425" gradientUnits="userSpaceOnUse">
<stop stop-color="#58A6FF"/>
<stop offset="1" stop-color="#3DDC97"/>
</linearGradient>
</defs>
</svg>