<svg xmlns="http://www.w3.org/2000/svg" viewBox="0 0 256 256">
<defs><linearGradient id="g" x1="0" x2="1" y1="0" y2="1"><stop offset="0%" stop-color="#22c55e"/><stop offset="100%" stop-color="#38bdf8"/></linearGradient></defs>
<rect width="256" height="256" rx="56" fill="#0b1120"/>
<path d="M64 88c0-22 18-40 40-40h60c18 0 33 15 33 33s-15 33-33 33h-48c-9 0-16 7-16 16s7 16 16 16h74v28h-74c-24 0-44-20-44-44s20-44 44-44h48c3 0 5-2 5-5s-2-5-5-5h-60c-7 0-12 5-12 12v80c0 7 5 12 12 12h96v28h-96c-22 0-40-18-40-40V88z" fill="url(#g)"/>
</svg>
