
<svg xmlns="http://www.w3.org/2000/svg" width="1200" height="320" viewBox="0 0 1200 320" role="img" aria-label="QualitetMarket">
  <defs>
    <linearGradient id="g1" x1="0" y1="0" x2="1" y2="1">
      <stop offset="0%" stop-color="#6d5efc"/>
      <stop offset="100%" stop-color="#17d4c3"/>
    </linearGradient>
    <linearGradient id="g2" x1="0" y1="0" x2="1" y2="1">
      <stop offset="0%" stop-color="#0f172a"/>
      <stop offset="100%" stop-color="#1e293b"/>
    </linearGradient>
  </defs>
  <rect width="1200" height="320" rx="36" fill="#ffffff"/>
  <g transform="translate(40,40)">
    <rect x="0" y="0" width="240" height="240" rx="48" fill="url(#g2)"/>
    <path d="M120 44l54 28v48c0 42-22 79-54 98-32-19-54-56-54-98V72z" fill="none" stroke="url(#g1)" stroke-width="14" stroke-linejoin="round"/>
    <path d="M94 121l18 18 34-38" fill="none" stroke="#e2fdf9" stroke-width="14" stroke-linecap="round" stroke-linejoin="round"/>
    <circle cx="182" cy="182" r="26" fill="url(#g1)"/>
    <path d="M182 167v30M167 182h30" stroke="#082f49" stroke-width="8" stroke-linecap="round"/>
  </g>
  <g transform="translate(320,72)">
    <text x="0" y="72" font-family="Inter, Arial, sans-serif" font-size="68" font-weight="800" fill="#0f172a">Qualitet<tspan fill="url(#g1)">Market</tspan></text>
    <text x="2" y="126" font-family="Inter, Arial, sans-serif" font-size="28" font-weight="600" fill="#475569">Marketplace sprzedaży • mobile-first • automatyczna marża</text>
    <g transform="translate(0,164)">
      <rect x="0" y="0" width="198" height="48" rx="24" fill="#0f172a"/>
      <text x="99" y="31" text-anchor="middle" font-family="Inter, Arial, sans-serif" font-size="20" font-weight="700" fill="#ffffff">BASIC / PRO / ELITE</text>
      <rect x="214" y="0" width="152" height="48" rx="24" fill="#ecfeff" stroke="#99f6e4"/>
      <text x="290" y="31" text-anchor="middle" font-family="Inter, Arial, sans-serif" font-size="20" font-weight="700" fill="#115e59">Sprzedaż LIVE</text>
    </g>
  </g>
</svg>
